<?xml version="1.0" encoding="utf-8"?>
<!-- Generator: Adobe Illustrator 24.0.3, SVG Export Plug-In . SVG Version: 6.00 Build 0)  -->
<svg version="1.1" id="Layer_1" xmlns="http://www.w3.org/2000/svg" xmlns:xlink="http://www.w3.org/1999/xlink" x="0px" y="0px"
	 viewBox="0 0 150 150" style="enable-background:new 0 0 100 100;" xml:space="preserve" width="100px" height="100px">
<style type="text/css">
	.st0{fill:#FFFFFF;}
	.st1{fill:#A29060;}
	.st2{fill:#E7E3D6;}
</style>
<g>
	
		<ellipse transform="matrix(0.1222 -0.9925 0.9925 0.1222 17.9065 116.8293)" class="st0" cx="75" cy="48.29" rx="45.19" ry="45.19"/>
	<path class="st1" d="M75,0.5c-26.35,0-47.79,21.44-47.79,47.79c0,26.35,21.44,47.79,47.79,47.79s47.79-21.44,47.79-47.79
		C122.79,21.94,101.35,0.5,75,0.5z M75,95.55c-26.1,0-47.26-21.16-47.26-47.26C27.74,22.19,48.9,1.03,75,1.03
		s47.26,21.16,47.26,47.26C122.26,74.39,101.1,95.55,75,95.55z"/>
	<path class="st2" d="M103.53,37.79c0.89,1.77,1.81,3.6,3.57,5.09c2.55,2.14,5.68,2.6,7.97,1.18c1.91-1.19,2.74-3.34,2.18-5.62
		c-0.44-1.8-1.96-3.78-4.77-3.44c-1.76,0.21-3.17,1.27-3.63,2.61c-0.28-0.03-0.65,0.08-1.09,0.38c-0.77,0.54-0.92,1.65-0.92,1.65
		s1.09,0.24,1.86-0.3c0.03-0.02,0.05-0.04,0.07-0.06c0,0.02,0,0.05,0.01,0.07c0.13,0.93,1.05,1.57,1.05,1.57s0.71-0.87,0.58-1.8
		c-0.09-0.64-0.32-1-0.59-1.15c0.34-1.06,1.58-1.81,2.79-1.96c0.68-0.08,2.95-0.13,3.64,2.66c0.45,1.83-0.21,3.55-1.72,4.49
		c-1.52,0.94-4.09,1.15-6.76-1.09c-1.6-1.35-2.47-3.08-3.31-4.76c-1.07-2.14-2.11-4.2-4.49-5.2c3.58-0.47,6.26-2.2,7.48-4.89
		c1.39-3.06,0.64-6.74-2.01-9.85c-2.87-3.38-6.46-2.81-8.65-1.29c-0.35,0.24-0.68,0.52-0.99,0.83c-1.82,1.82-2.8,4.68-1.36,7.27
		c1.58,2.84,3.82,3.03,5.26,2.32c1.39-0.68,2.41-2.34,1.87-4.05c0.41-0.07,0.82-0.45,1.13-1.24c0.43-1.1-0.18-2.37-0.18-2.37
		s-1.31,0.51-1.75,1.61c-0.01,0.04-0.03,0.07-0.04,0.11c-0.02-0.02-0.04-0.04-0.06-0.07c-0.78-0.88-2.19-0.92-2.19-0.92
		s-0.14,1.4,0.64,2.29c0.53,0.6,1.02,0.83,1.41,0.8c0.44,1.22-0.29,2.43-1.3,2.92c-1.08,0.53-2.67,0.31-3.9-1.89
		c-1.39-2.5,0.02-5.34,2.04-6.75c1.93-1.33,4.85-1.74,7.27,1.11c2.38,2.8,3.07,6.07,1.85,8.75c-1.24,2.74-4.29,4.35-8.35,4.41
		c-1.56,0.02-2.99,0.16-4.32,0.41c0.42-0.63,0.63-1.38,0.62-2.21c-0.03-1.6-0.91-3.18-2.1-3.77c0,0,0,0,0,0
		c-0.17-0.43-0.66-0.83-1.55-1.09c-1.34-0.4-2.77,0.46-2.77,0.46s0.74,1.5,2.08,1.89c1.01,0.3,1.68,0.17,2.03-0.19
		c0.65,0.47,1.26,1.53,1.28,2.71c0.01,0.79-0.24,1.89-1.54,2.59c-0.15,0.08-0.29,0.15-0.44,0.21c-0.31,0.1-0.61,0.21-0.9,0.32
		c-1.26,0.32-2.38,0.08-3.23-0.73c-1.62-1.52-1.97-4.68-0.81-7.19c2.7-5.84,3.85-9.64,3.73-12.34c-0.13-2.89-1.76-4.24-3.5-5.28
		c-1.94-1.15-4.43-1.32-6.52-0.46c-0.79,0.33-1.49,0.79-2.06,1.36c-0.78,0.78-1.33,1.76-1.62,2.88c-0.28,1.11-0.35,2.09-0.27,2.94
		c0.15,2.05-0.47,3.81-1.76,4.96c-1.08,0.96-2.57,1.41-3.81,1.14c-2.32-0.5-3.71-1.84-4.53-3.11c0,0,0,0,0,0
		c-0.21-0.37-0.42-0.78-0.64-1.2c-0.87-2.04-0.95-4.48-0.18-6.34c0.34-0.82,1-1.89,2.21-2.31c2.65-0.92,4.17,0.17,4.83,0.9
		c1.01,1.1,1.34,2.7,0.8,3.89c-0.35,0.78-1.03,1.28-1.96,1.48c-0.29-0.32-0.84-0.55-1.69-0.59c-1.39-0.06-2.58,1.11-2.58,1.11
		s1.08,1.28,2.47,1.34c1.19,0.05,1.83-0.32,2.01-0.85c1.26-0.26,2.21-0.98,2.69-2.07c0.7-1.56,0.29-3.63-0.99-5.02
		c-1.43-1.56-3.59-1.99-5.94-1.17c-0.61,0.21-1.15,0.55-1.62,1.02c-0.49,0.49-0.9,1.12-1.21,1.87c-0.43,1.05-0.62,2.25-0.59,3.48
		c-1.27-2.15-2.74-3.93-4.65-3.89c-1.03,0.02-1.77,0.37-2.27,0.88c-0.53,0.53-0.81,1.24-0.88,1.93c-0.09,0.8,0.09,1.69,0.51,2.41
		c-0.16,0.46,0,1.11,0.65,1.88c0.89,1.08,2.56,1.17,2.56,1.17s0.23-1.66-0.67-2.73c-0.64-0.78-1.25-1.06-1.73-0.99
		c-0.23-0.47-0.35-1.05-0.28-1.63c0.06-0.55,0.39-1.84,2.14-1.87c2.05-0.04,3.78,3.35,5.18,6.07c0.09,0.17,0.17,0.33,0.26,0.5
		c0.06,0.13,0.11,0.26,0.18,0.39c1.15,2.34,3.17,3.94,5.7,4.48c1.57,0.34,3.38-0.19,4.71-1.38c0.95-0.85,1.6-1.96,1.91-3.25
		c0.59,0.9,1.43,1.52,2.3,1.85c2.41,0.93,5.09,0,6.25-2.16c0.03-0.05,0.04-0.1,0.05-0.15c0.59,0.33,1.37,0.06,2.05-1.15
		c0.68-1.22,0.17-2.81,0.17-2.81s-1.09,0.26-1.86,1.03c-0.45-1.05-1.48-1.71-1.48-1.71s-0.54,0.71-0.73,1.63
		c-0.95-0.5-2.04-0.44-2.04-0.44s-0.05,1.67,0.94,2.65c0.7,0.68,1.31,0.91,1.78,0.81c-1.09,1.58-3.2,1.93-4.75,1.34
		c-0.6-0.23-2.18-1.06-2.47-3.29c-0.01-0.12-0.01-0.23-0.02-0.35c0-0.02-0.01-0.04-0.01-0.05c-0.04-0.67,0.03-1.45,0.26-2.36
		c0.41-1.63,1.5-2.89,3.06-3.54c1.79-0.74,3.93-0.59,5.59,0.39c3.17,1.88,4.98,4.15-0.64,16.28c-1.36,2.94-0.91,6.54,1.04,8.39
		c0.54,0.51,1.15,0.84,1.83,1.01c-0.84,0.5-1.61,1.09-2.32,1.76c-2.01,1.91-3.46,4.45-4.36,7.69c-0.29-1.6-0.89-3.2-2.02-4.48
		c-1.5-1.97-2.09-4.48-1.4-6.13c0.4-0.96,1.2-1.5,2.33-1.58c2.06-0.14,2.91,1.06,3.02,2.23c0.04,0.48-0.04,0.98-0.24,1.4
		c-0.47-0.17-1.13,0-1.91,0.69c-1.05,0.93-1.08,2.6-1.08,2.6s1.66,0.17,2.71-0.76c0.68-0.6,0.96-1.16,0.94-1.61
		c0.48-0.68,0.69-1.57,0.61-2.41c-0.22-2.37-2.23-3.3-4.13-3.17c-1,0.07-1.83,0.43-2.44,1.04c-0.32,0.32-0.59,0.72-0.78,1.18
		c-0.57,1.38-0.45,3.16,0.24,4.88c-2.06-1.04-4.59-1.08-6.88-0.11c-0.03,0-0.05,0.01-0.08,0.01c-5.77,1.59-9.03-1.18-10.45-2.97
		c-2.31-2.91-2.93-7.17-1.45-9.91c0.76-1.4,2.38-3,5.78-2.67c0.53,0.05,1.09,0.22,1.68,0.47c2.95,1.83,4.25,3.9,3.55,5.68
		c-0.59,1.49-2.48,2.53-4.06,2.22c-0.91-0.18-1.5-0.8-1.73-1.79c0.39-0.28,0.65-0.88,0.61-1.88c-0.05-1.39-1.32-2.48-1.32-2.48
		s-1.18,1.18-1.13,2.57c0.04,1.02,0.36,1.61,0.79,1.84c0.38,2.06,1.87,2.6,2.58,2.74c2.07,0.41,4.46-0.9,5.23-2.86
		c0.51-1.29,0.24-2.49-0.36-3.53c0.31,0.22,0.61,0.44,0.92,0.66c3.77,2.72,7.66,5.53,10.59,3.04c1.91-1.62,1.79-3.24,1.56-4.05
		c-0.41-1.4-1.73-2.53-3.22-2.74c-1.24-0.18-2.32,0.32-2.98,1.36c-0.02,0.03-0.03,0.05-0.04,0.08c-0.17-0.17-0.49-0.23-0.97-0.08
		c-0.69,0.22-1.14,1.09-1.14,1.09s0.68,0.51,1.37,0.29c0,0,0,0,0,0c-0.03,0.09-0.06,0.18-0.09,0.28c-0.23,0.9,0.25,1.8,0.25,1.8
		s0.86-0.56,1.09-1.47c0.02-0.07,0.03-0.13,0.04-0.19c0.04,0.04,0.07,0.08,0.11,0.13c0.51,0.52,1.35,0.38,1.35,0.38
		s0.02-0.97-0.48-1.49c-0.2-0.2-0.39-0.32-0.55-0.37c0.59-0.83,1.43-0.85,1.89-0.79c1.08,0.15,2.08,1,2.37,2
		c0.29,1.01-0.13,2.04-1.23,2.97c-2.31,1.96-5.87-0.61-9.31-3.09c-2.6-1.88-5.05-3.65-7.26-3.86c-2.37-0.23-4.34,0.39-5.71,1.76
		c-0.12,0.12-0.24,0.25-0.35,0.39c-0.03-0.2-0.07-0.42-0.15-0.66c-0.4-1.35-1.92-2.09-1.92-2.09s-0.86,1.45-0.46,2.8
		c0.35,1.17,0.93,1.65,1.5,1.63c-0.98,2.32-0.83,5.28,0.32,7.91c-2.45-2.64-3.39-4.89-4.19-6.81c-0.91-2.18-1.69-4.07-4.24-5.62
		c-1.36-0.83-2.8-1.06-4.26-0.67c-1.41,0.37-2.62,1.25-3.56,2.18c-0.78,0.78-1.36,1.6-1.7,2.2c-2.25,4.01-0.78,6.75,1.34,7.99
		c2.28,1.33,5.75,1.05,7.28-1.48c0.91-1.5,0.7-2.63,0.36-3.31c-0.5-1.01-1.52-1.61-2.48-1.88c0.1-0.35-0.02-0.83-0.48-1.42
		c-0.67-0.85-1.96-0.95-1.96-0.95s-0.16,1.03,0.28,1.85c-0.18-0.03-0.38-0.04-0.62-0.03c-1.08,0.04-1.92,1.03-1.92,1.03
		s0.91,0.92,1.99,0.87c0.2-0.01,0.38-0.03,0.54-0.06c0,0,0,0,0,0c-0.57,0.92-0.22,2.16-0.22,2.16s1.27-0.25,1.84-1.16
		c0.32-0.51,0.42-0.94,0.38-1.26c0.7,0.23,1.39,0.66,1.71,1.31c0.32,0.65,0.21,1.43-0.32,2.31c-1.22,2.01-4.02,2.2-5.87,1.12
		c-0.82-0.48-3.32-2.37-0.96-6.59c0.61-1.08,2.35-3.29,4.61-3.88c1.18-0.31,2.35-0.12,3.46,0.56c2.26,1.38,2.95,3.03,3.82,5.13
		c1.17,2.81,2.63,6.32,8.35,10.66c0.03,0.03,0.07,0.04,0.11,0.06c1.99,1.53,4.46,2.23,7.17,2.01c-0.12,0.11-0.24,0.22-0.35,0.33
		c-1.43,1.43-2.16,3.31-1.99,5.28c0.24,2.82,2.46,5.37,5.16,5.94c-1.22,0.43-2.61,0.66-3.85,0.28c-1.11-0.34-2.1-0.91-3.05-1.47
		c-0.2-0.12-0.4-0.23-0.59-0.34h0c-2.64-1.53-5.24-4.1-4.6-6.73c0.28-1.14,1.15-1.92,2.23-1.97c1.1-0.05,1.92,0.3,2.37,1.02
		c0.42,0.66,0.45,1.59,0.08,2.26c-0.43,0.77-1.08,0.67-1.27,0.62c-0.39-0.1-0.67-0.39-0.67-0.68c0-0.29-0.23-0.52-0.51-0.53
		c-0.29,0-0.52,0.23-0.53,0.51c-0.01,0.78,0.58,1.48,1.44,1.7c0.97,0.26,1.93-0.18,2.45-1.12c0.55-0.99,0.5-2.32-0.11-3.31
		c-0.38-0.6-1.31-1.6-3.31-1.5c-0.85,0.04-1.62,0.4-2.2,0.99c-0.47,0.47-0.81,1.08-0.98,1.78c-0.17,0.7-0.39,2.64,1.4,4.87
		c-1.57-0.25-3.74,0.09-7.04,1.97c-2.28,1.31-5.16,1.33-7.51,0.07c-2.22-1.2-3.59-3.38-3.75-5.99c-0.25-3.94,2.68-7.05,5.57-7.97
		c2.79-0.89,5.34,0.13,6.99,2.81c1.59,2.57,0.59,4.53-0.76,5.43c-1.36,0.91-3.36,0.99-4.89-0.42c0.38-0.18,0.75-0.6,1.07-1.31
		c0.57-1.28-0.09-2.81-0.09-2.81s-1.3,0.44-1.97,1.48c-0.85-0.91-2.23-1.11-2.23-1.11s-0.33,1.49,0.34,2.63
		c-1.28,0.29-2.14,1.54-2.14,1.54s1.29,1.05,2.68,0.86c0.74-0.11,1.23-0.34,1.52-0.63c0.78,0.77,1.73,1.26,2.77,1.42
		c1.21,0.19,2.5-0.09,3.52-0.78c1.87-1.25,2.92-3.85,1.06-6.84c-1.9-3.07-4.96-4.28-8.19-3.25c-1.37,0.44-2.6,1.22-3.6,2.22
		c-1.79,1.79-2.85,4.29-2.69,6.8c0.19,2.98,1.75,5.47,4.3,6.84c0.52,0.28,1.07,0.51,1.63,0.67c-1.61-0.14-3.14-0.63-4.58-1.09
		c-2.47-0.79-4.81-1.53-6.89-0.3c-0.43,0.25-0.81,0.55-1.13,0.87c-0.99,0.99-1.47,2.27-1.32,3.61c0.18,1.56,1.18,2.85,2.54,3.28
		c0.79,0.25,2.28,0.38,4.03-1.12c0.47,0.08,1.08-0.16,1.76-0.87c0.97-1.01,0.86-2.68,0.86-2.68s-1.67-0.03-2.63,0.98
		c-0.72,0.75-0.92,1.39-0.77,1.87c-1,0.82-2.02,1.11-2.93,0.83c-0.97-0.31-1.69-1.25-1.82-2.4c-0.16-1.38,0.55-2.65,1.94-3.47
		c1.68-0.99,3.71-0.35,6.05,0.4c3.12,0.99,6.99,2.23,11.24-0.37c0.18-0.09,0.37-0.18,0.54-0.28c3.2-1.83,5.16-2.1,6.55-1.81
		c-0.43,0.1-0.88,0.28-1.35,0.57c-0.29,0.18-0.55,0.38-0.77,0.6c-0.71,0.71-1.07,1.63-1.01,2.65c0.08,1.44,0.99,2.8,2.26,3.38
		c0.96,0.44,1.99,0.4,2.97-0.11c-0.04,0.35,0.23,0.7,0.92,0.91c0.84,0.26,1.88-0.3,1.88-0.3s-0.32-0.97-1.17-1.23v0
		c0.09-0.07,0.18-0.14,0.28-0.23c0.85-0.74,0.98-1.97,0.98-1.97s-1.24-0.02-2.09,0.72c-0.06,0.05-0.12,0.11-0.17,0.16
		c-0.01-0.07-0.02-0.13-0.03-0.2c-0.15-0.86-1.09-1.3-1.09-1.3s-0.69,0.95-0.54,1.81c0.07,0.38,0.19,0.64,0.34,0.8
		c-0.76,0.32-1.41,0.19-1.85-0.01c-0.92-0.42-1.6-1.45-1.66-2.5c-0.05-0.95,0.4-1.77,1.29-2.3c1.8-1.09,3.25-0.25,5.07,0.82
		c0.96,0.56,2.04,1.2,3.27,1.57c1.54,0.47,3.2,0.17,4.62-0.34c-1.52,2.04-1.71,4.06-1.22,5.53c0.55,1.64,1.93,2.64,3.53,2.56
		c1.57-0.08,2.76-0.73,3.36-1.81c0.51-0.93,0.52-2.08,0.01-3c-0.52-0.94-1.48-1.38-2.45-1.12c-0.86,0.23-1.45,0.92-1.44,1.7
		c0,0.29,0.24,0.52,0.53,0.51c0.29,0,0.52-0.24,0.51-0.53c0-0.29,0.28-0.58,0.67-0.68c0.19-0.05,0.85-0.15,1.27,0.62
		c0.34,0.62,0.34,1.38,0,2c-0.42,0.76-1.31,1.21-2.51,1.28c-1.12,0.06-2.09-0.67-2.49-1.85c-0.82-2.45,1.03-4.97,3.12-6.61
		c0.86-0.49,1.59-1.27,2.15-2.32c1-1.88,0.93-3.63-0.19-4.81c-1.04-1.09-2.85-1.48-4.13-0.88c-0.94,0.44-1.41,1.32-1.29,2.42
		c0.03,0.28,0.29,0.49,0.58,0.46c0.28-0.03,0.49-0.29,0.46-0.58c-0.08-0.65,0.16-1.11,0.69-1.36c0.77-0.36,2.11-0.21,2.93,0.66
		c0.8,0.85,0.81,2.13,0.02,3.6c-0.23,0.43-0.57,0.95-1.06,1.4c-0.01,0-0.01,0.01-0.02,0.01c-0.24,0.16-0.46,0.32-0.68,0.49
		c-0.06,0.04-0.12,0.07-0.18,0.11c-0.64,0.32-1.44,0.47-2.41,0.27c-2.28-0.47-4.16-2.63-4.36-5.02c-0.19-2.22,0.92-4.22,3.04-5.51
		c2.4-1.45,5.43-1.51,7.56-0.16c0.5,0.32,0.95,0.71,1.34,1.17c0.06,0.08,0.12,0.15,0.19,0.23c1.47,1.89,2.06,4.81,1.66,8.45
		c-0.7,6.44,0.14,14.05,1.03,16.46c1.12,3.05,3.27,5.44,5.93,6.87c3.25,2.49,3.49,6.12,2.6,8.73c-1.1,3.24-3.89,5.42-6.78,5.32
		c-2.72-0.1-4.34-1.39-4.98-2.92c-0.03-0.08-0.06-0.16-0.09-0.23c-0.13-0.37-0.21-0.75-0.23-1.13c-0.09-1.65,0.83-3.46,3.04-4.16
		c0.03,0.36,0.17,0.79,0.47,1.29c0.72,1.2,2.35,1.54,2.35,1.54s0.47-1.6-0.25-2.8c-0.38-0.63-0.78-1-1.16-1.15
		c0.22-0.31,0.37-0.76,0.44-1.38c0.15-1.39-0.95-2.64-0.95-2.64s-1.34,1-1.49,2.38c-0.09,0.84,0.05,1.41,0.33,1.75
		c-0.97,0.3-1.75,0.78-2.34,1.38c-0.29,0.29-0.53,0.6-0.74,0.94c0.06-1.05,0.24-2.1,0.41-3.13c0.33-1.99,0.65-3.88,0.08-5.53
		c0,0,0-0.01,0-0.02c-0.01-0.02-0.01-0.04-0.02-0.06c-0.01-0.01-0.01-0.03-0.02-0.04c-1.15-3.39-3.23-5.74-6.17-6.98
		c-3.9-1.63-9.19-1.16-14.65,1.28c0,0-0.01,0-0.01,0.01c-3.16,0.83-6.11-1.15-6.85-2.95c-0.6-1.47-0.37-3.22,0.57-4.27
		c0.81-0.9,2.02-1.16,3.5-0.74c1.97,0.56,2.45,1.69,2.26,2.48c-0.15,0.64-0.76,1.2-1.65,1.07c-0.14-0.4-0.53-0.81-1.22-1.2
		c-1.22-0.68-2.81-0.16-2.81-0.16s0.39,1.62,1.61,2.31c1.09,0.61,1.85,0.53,2.24,0.08c1.32,0.21,2.53-0.57,2.84-1.85
		c0.32-1.34-0.48-3.02-2.99-3.72c-1.78-0.5-3.33-0.19-4.4,0.89c-0.05,0.05-0.11,0.11-0.16,0.17c-1.19,1.33-1.5,3.53-0.75,5.35
		c0.62,1.51,2.22,2.87,4.19,3.47c-2.37,0.04-4.08-1.2-5.97-2.57c-1.47-1.07-2.98-2.17-4.91-2.67c-3.25-0.85-5.55,0-6.83,1.28
		c-0.24,0.24-0.44,0.49-0.61,0.75c-1.13,1.76-0.9,4,0.6,5.85c2.03,2.5,4.12,1.78,4.92,1.36c1.4-0.74,2.39-2.31,2.45-3.7
		c0.31-0.04,0.65-0.3,0.96-0.84c0.46-0.81,0.12-1.88,0.12-1.88s-1.09,0.25-1.56,1.07c-0.02,0.03-0.03,0.05-0.04,0.08
		c-0.01-0.02-0.02-0.04-0.04-0.06c-0.51-0.78-1.62-0.97-1.62-0.97s-0.27,1.09,0.24,1.87c0.3,0.46,0.61,0.69,0.89,0.76
		c-0.08,1.01-0.86,2.21-1.9,2.75c-1.24,0.65-2.53,0.26-3.64-1.1c-1.21-1.48-1.41-3.26-0.53-4.63c0.86-1.34,2.97-2.47,6.3-1.59
		c1.74,0.46,3.17,1.5,4.56,2.51c1.96,1.42,3.96,2.87,6.79,2.75c-0.47,0.36-0.91,0.74-1.32,1.14c-1.48,1.48-2.45,3.23-2.81,5.1
		c-0.2-0.11-0.41-0.21-0.64-0.3c-2.35-0.86-3.7,0.03-4.29,0.64c-1.02,1.04-1.35,2.75-0.8,4.16c0.46,1.16,1.42,1.86,2.66,1.93
		c0.03,0,0.06,0,0.09,0c-0.07,0.23,0.04,0.54,0.41,0.88c0.53,0.5,1.51,0.46,1.51,0.46s0.11-0.84-0.42-1.34c0,0,0,0,0,0
		c0.09-0.02,0.19-0.04,0.29-0.07c0.9-0.24,1.44-1.1,1.44-1.1s-0.91-0.47-1.81-0.23c-0.07,0.02-0.13,0.04-0.19,0.06
		c0.02-0.05,0.04-0.1,0.05-0.16c0.2-0.69-0.33-1.36-0.33-1.36s-0.86,0.46-1.06,1.15c-0.08,0.27-0.09,0.49-0.05,0.66
		c-1.01-0.1-1.45-0.82-1.62-1.26c-0.4-1.02-0.16-2.3,0.57-3.05c0.74-0.75,1.84-0.89,3.2-0.39c0.33,0.12,0.61,0.29,0.85,0.49
		c-0.01,0.21-0.02,0.42-0.02,0.64c0.06,3.45,2.16,6.44,5.61,8c3.37,1.52,6,0.35,7.56-1.42c0.01-0.01,0.03-0.02,0.04-0.04
		c1.06-1.18,3.03-2.24,5.09-1.33c1.3,0.58,2.03,1.74,1.9,3.03c-0.01,0.09-0.02,0.17-0.03,0.26c-0.05,0.19-0.09,0.39-0.13,0.59
		c-0.35,1.27-1.2,2.25-2.53,2.92c-1,0.5-1.98,0.68-2.34,0.73c0.08-0.28-0.05-0.65-0.49-1.06c-0.64-0.61-1.82-0.57-1.82-0.57
		s-0.15,1.02,0.49,1.62l0,0c-0.11,0.02-0.23,0.04-0.35,0.08c-1.09,0.28-1.75,1.32-1.75,1.32s1.1,0.58,2.19,0.29
		c0.08-0.02,0.16-0.04,0.23-0.07c-0.02,0.06-0.05,0.13-0.07,0.19c-0.25,0.84,0.39,1.65,0.39,1.65s1.04-0.55,1.29-1.38
		c0.14-0.48,0.12-0.82-0.02-1.04c0.64-0.09,3.06-0.54,4.63-2.29c0.11,2.26,0.93,4.37,2.26,5.43c1.15,0.92,2.59,1.02,4.07,0.27
		c1.61-0.81,3.11-2.64,2.03-5.14c-0.45-1.04-1.34-1.99-2.35-2.4c-0.22-0.38-0.73-0.71-1.57-0.91c-1.36-0.32-2.74,0.62-2.74,0.62
		s0.82,1.45,2.19,1.77c1.07,0.25,1.75,0.05,2.06-0.36c0.57,0.31,1.11,0.88,1.46,1.69c1,2.31-0.93,3.49-1.54,3.8
		c-1.13,0.57-2.12,0.51-2.96-0.16c-1.48-1.19-2.21-4.14-1.74-6.8c0.05-0.19,0.09-0.38,0.12-0.58c0,0,0,0,0,0
		c0.01-0.04,0.01-0.07,0.01-0.11c0.01-0.08,0.03-0.17,0.03-0.25c0.18-1.72-0.81-3.33-2.51-4.08c-1.1-0.49-2.66-0.64-4.21,0.05
		c0.88-2.42,0.56-5.45-1.87-7.19c-2.64-1.89-4.75-1.1-5.75,0.16c-0.96,1.21-1.17,3.15,0.05,4.47c-0.34,0.24-0.55,0.76-0.49,1.61
		c0.08,1.18,1.18,2.06,1.18,2.06s0.97-1.02,0.89-2.2c0-0.04-0.01-0.08-0.01-0.11c0.03,0.01,0.05,0.02,0.08,0.04
		c1.08,0.47,2.37-0.11,2.37-0.11s-0.47-1.33-1.55-1.79c-0.74-0.32-1.28-0.31-1.62-0.11c-0.92-0.91-0.78-2.32-0.08-3.2
		c0.75-0.94,2.28-1.43,4.33,0.04c2.33,1.67,2.27,4.84,1.04,6.97c-1.17,2.03-3.63,3.65-7.04,2.11c-3.08-1.39-4.95-4.03-5-7.07
		c-0.06-3.46,2.21-6.65,6.08-8.56c0.34-0.17,0.67-0.32,1-0.47c0.01,0,0.01-0.01,0.02-0.01c0,0,0,0,0,0
		c5.19-2.32,10.17-2.79,13.81-1.26c1.39,0.58,2.57,1.45,3.52,2.58c-1.18-0.59-2.47-0.73-3.58-0.59c-1.31,0.17-2.44,0.71-3.23,1.5
		c-0.58,0.58-0.97,1.28-1.1,2.06c-0.32,1.8-0.02,3.23,0.89,4.23c0.93,1.03,2.28,1.36,3.2,1.46c-0.06,0.23-0.02,0.55,0.18,0.95
		c0.38,0.79,1.5,1.15,1.5,1.15s0.5-0.9,0.12-1.69c-0.03-0.07-0.06-0.12-0.1-0.18c0.08,0.01,0.15,0.02,0.24,0.03
		c1.12,0.1,2.11-0.65,2.11-0.65s-0.82-0.92-1.95-1.02c-0.13-0.01-0.25-0.02-0.36-0.02l0,0c0.53-0.7,0.22-1.68,0.22-1.68
		s-1.17,0.16-1.7,0.86c-0.4,0.52-0.44,0.93-0.27,1.2c-0.74-0.09-1.74-0.36-2.42-1.11c-0.68-0.76-0.9-1.89-0.64-3.36
		c0.24-1.39,1.63-2.48,3.44-2.71c1.83-0.23,4.22,0.46,5.43,3.12c0.04,0.09,0.08,0.18,0.11,0.27c0,0,0,0.01,0,0.01
		c0.51,1.41,0.21,3.2-0.11,5.08c-0.39,2.35-0.83,4.99,0.13,7.59c0.68,2.01,2.63,3.78,6.03,3.9c2.5,0.09,4.93-1.28,6.52-3.51
		c-0.18,1.82,0.06,3.43,1.91,4.11c1.98,0.72,3.34-0.28,3.96-1.47c0.39-0.75,0.54-1.71,0.38-2.56c0.23-0.45,0.14-1.13-0.48-2
		c-0.81-1.14-2.47-1.34-2.47-1.34s-0.34,1.64,0.47,2.77c0.53,0.74,1.05,1.07,1.51,1.11c0.03,0.5-0.07,1.05-0.33,1.55
		c-0.26,0.49-1.03,1.58-2.68,0.97c-1.63-0.6-1.43-2.21-0.93-5.02c0.13-0.72,0.26-1.47,0.35-2.22c0-0.01,0-0.02,0-0.04
		c0.32-2.06-0.01-4.41-1.53-6.44c1.77,0.51,3.67,0.62,5.58,0.27c0.38-0.07,0.76-0.16,1.12-0.27c0,0,0.01,0,0.01,0
		c5.44-0.2,7.02,1.81,7.48,3.04c0.56,1.49,0,3.39-1.29,4.43c-1.02,0.82-2.23,0.88-3.33,0.16c-0.86-0.56-1.27-1.25-1.17-2.01
		c0.1-0.76,0.68-1.33,1.18-1.49c0.33-0.1,0.6-0.04,0.82,0.19c0.2,0.21,0.52,0.22,0.73,0.02c0.21-0.19,0.22-0.52,0.02-0.73
		c-0.49-0.53-1.18-0.7-1.89-0.47c-0.97,0.31-1.75,1.27-1.89,2.34c-0.02,0.13-0.03,0.29-0.02,0.46c-0.02,0-0.03-0.01-0.05-0.01
		c-1.18-0.31-2.4,0.48-2.4,0.48s0.68,1.28,1.86,1.59c0.7,0.18,1.21,0.14,1.54-0.05c0.19,0.19,0.42,0.37,0.7,0.55
		c1.48,0.96,3.18,0.88,4.55-0.22c1.65-1.33,2.33-3.69,1.61-5.61c-0.43-1.14-1.61-2.84-4.88-3.48c0.48-0.08,0.98-0.16,1.5-0.25
		c2.15-0.35,4.59-0.74,7.46-1.57c4.15-1.2,5.84-4.13,5.66-6.34c-0.15-1.85-1.52-3.15-3.58-3.4c-2.31-0.28-3.27,0.94-3.63,1.69
		c-0.27,0.57-0.39,1.22-0.38,1.85c-0.38,0.4-0.42,1.13,0.14,2.16c0.67,1.22,2.29,1.63,2.29,1.63s0.53-1.58-0.14-2.81
		c-0.4-0.73-0.84-1.12-1.26-1.25c0.02-0.38,0.11-0.77,0.28-1.13c0.43-0.89,1.3-1.26,2.57-1.11c1.56,0.19,2.55,1.1,2.66,2.45
		c0.15,1.8-1.33,4.22-4.91,5.26c-2.8,0.81-5.21,1.2-7.33,1.54c-0.37,0.06-0.73,0.12-1.08,0.18c1.74-1.3,3.2-3.1,4.26-5.33
		c1.51-3.16,1.29-6.47-0.6-9.4c-0.01-0.01-0.01-0.03-0.01-0.04c-1.86-3.92,0.01-7.17,2.69-8.64c3.12-1.72,5.73-0.62,6.83,1.13
		c1.45,2.29,0.68,4.62-0.73,5.92c-0.76,0.7-1.92,1.25-3.12,1c0.08-0.38,0.03-0.88-0.21-1.51c-0.49-1.31-2.03-1.94-2.03-1.94
		s-0.65,1.29-0.35,2.52c0,0-0.01,0-0.01,0c-1.37,0.27-2.25,1.69-2.25,1.69s1.34,0.99,2.72,0.72c0.67-0.13,1.13-0.35,1.41-0.62
		c1.5,0.52,3.21,0.14,4.55-1.1c1.67-1.54,2.66-4.46,0.9-7.24c-1.85-2.92-5.53-2.96-8.21-1.48c-0.68,0.37-1.31,0.84-1.86,1.39
		c-1.5,1.5-2.42,3.62-2.05,6.1c-2.49-2.4-5.98-3.79-8.95-3.42c-2.46,0.3-4.32,1.76-5.26,4.11c-1.71,4.3-0.01,6.66,1.16,7.69
		c1.7,1.49,4.41,2.01,6.33,1.28c0.01,0.43,0.26,0.95,0.83,1.53c0.97,1,2.64,0.95,2.64,0.95s0.08-1.52-0.76-2.53
		c1.22-0.49,1.88-1.87,1.88-1.87s-1.22-0.69-2.44-0.49c0.11-1.23-0.66-2.37-0.66-2.37s-1.46,0.81-1.79,2.17
		c-0.17,0.7-0.15,1.23,0.01,1.61c-1.44,0.57-3.79,0.32-5.35-1.06c-1.67-1.46-1.98-3.78-0.89-6.53c1.01-2.54,2.97-3.29,4.42-3.47
		c3.23-0.4,7.18,1.54,9.38,4.61c1.96,2.72,2.25,5.85,0.83,8.83c-1.81,3.79-4.82,6.25-8.47,6.92c-2.56,0.47-5.1,0.03-7.28-1.12
		c-0.06-0.05-0.12-0.09-0.19-0.14c-0.07-0.05-0.15-0.08-0.23-0.09c-2.28-1.33-4.12-3.45-5.1-6.12c-0.71-1.92-1.4-7.65-1.18-13.13
		c0.16-3.52,1.72-7.99,5.59-9.03c2.02-0.54,3.95,0.18,5.04,1.89c0.96,1.5,1.09,2.88,0.38,3.88c-0.58,0.81-1.7,1.26-2.6,1.04
		c-0.41-0.1-0.91-0.37-1.1-1.09c0.45,0.25,1.1,0.08,1.82-0.74c0.81-0.93,0.65-2.4,0.65-2.4s-1.48,0.04-2.29,0.97c0,0,0,0,0,0
		c-0.04-0.13-0.08-0.27-0.14-0.42c-0.51-1.3-2.07-1.9-2.07-1.9s-0.73,1.5-0.22,2.8c0.04,0.1,0.08,0.18,0.12,0.27
		c-0.09-0.02-0.19-0.03-0.29-0.04c-1.23-0.13-2.34,0.85-2.34,0.85s0.88,1.18,2.11,1.31c0.83,0.09,1.37-0.08,1.65-0.38
		c0.26,0.91,0.91,1.55,1.84,1.78c1.31,0.32,2.87-0.29,3.69-1.44c0.96-1.35,0.84-3.18-0.35-5.04c-1.34-2.1-3.71-3-6.19-2.33
		c-1.19,0.32-2.31,0.99-3.26,1.94c-0.37,0.37-0.71,0.78-1.02,1.22c-0.08,0.11-0.15,0.23-0.23,0.35c1.3-5.62,4.13-9.22,8.64-10.95
		c0.17-0.05,0.34-0.11,0.51-0.18c0.25-0.08,0.5-0.16,0.75-0.24c0.53-0.11,1.03-0.21,1.5-0.28c1.39-0.09,2.74,0.26,4.04,1.05
		c2.62,1.58,4.17,4.43,4.44,5.94c0.34,1.93-0.27,3.89-1.52,4.86c-0.97,0.76-2.19,0.85-3.51,0.26c-1.8-0.8-2.22-2.07-2.25-3
		c-0.04-1.1,0.46-2.13,1.04-2.65c0.34,0.3,0.93,0.45,1.81,0.33c1.39-0.18,2.35-1.54,2.35-1.54s-1.28-1.07-2.66-0.9
		c-1.07,0.14-1.63,0.54-1.79,1.02c-1.08,0.67-1.83,2.25-1.78,3.76c0.03,1,0.45,2.84,2.86,3.91c1.68,0.75,3.3,0.61,4.57-0.39
		c1.57-1.22,2.32-3.53,1.91-5.86c-0.35-1.99-2.19-5-4.92-6.65c-0.17-0.1-0.35-0.2-0.52-0.29C101.17,33.11,102.26,35.27,103.53,37.79
		"/>
	<path class="st0" d="M107.3,61.05c-0.24-0.06-5.9-1.46-12.86-0.19c-0.28,0.05-0.56,0.11-0.84,0.17c2.31-7.12,1.46-13.38,1.42-13.65
		l-0.19-1.33l-1.28,0.41c-0.18,0.06-4.36,1.43-8.89,4.9c-0.98,0.75-1.9,1.55-2.76,2.38c-1.8-7.28-5.84-12.14-6.02-12.36L75,40.35
		l-0.87,1.03c-0.18,0.21-4.23,5.06-6.04,12.34c-0.85-0.82-1.76-1.61-2.74-2.36c-4.53-3.47-8.72-4.84-8.89-4.9l-1.28-0.41l-0.19,1.33
		c-0.04,0.27-0.9,6.53,1.42,13.65c-0.28-0.06-0.57-0.12-0.84-0.17c-6.96-1.27-12.62,0.13-12.86,0.19l-1.3,0.33l0.54,1.23
		c0.1,0.22,2.49,5.56,7.78,10.26c3.83,3.4,9.78,6.94,17.99,6.94c1.95,0,4.03-0.2,6.23-0.65L74.63,79c0.12-0.03,0.25-0.06,0.37-0.08
		c0.13,0.03,0.25,0.06,0.38,0.09l0.67,0.14c2.2,0.45,4.28,0.65,6.23,0.65c8.2,0,14.16-3.54,17.99-6.94
		c5.29-4.7,7.68-10.03,7.78-10.26l0.54-1.23L107.3,61.05z"/>
	<path class="st1" d="M42.98,62.15c0,0,9.33,21.1,32,15.61c0,0-17.05,2.56-28.17-13.73C66.49,62.72,75,77.71,75,77.71
		C65.32,56.5,42.98,62.15,42.98,62.15"/>
	<path class="st1" d="M74.97,46.38c2.23,3.9,3.44,7.65,3.99,11.12c0.66-0.9,1.35-1.73,2.05-2.48C79.4,47.34,75,42.11,75,42.11
		s-4.41,5.22-6.04,12.87c0.69,0.74,1.38,1.56,2.04,2.45C71.55,53.99,72.76,50.26,74.97,46.38"/>
	<path class="st1" d="M75,77.71c0,0,8.51-14.99,28.19-13.68C92.07,80.33,75.02,77.76,75.02,77.76c22.67,5.49,32-15.61,32-15.61
		S84.68,56.5,75,77.71"/>
	<path class="st1" d="M60.86,62.67c-1.37-3.22-2.32-7.03-2.5-11.51c11.96,6.42,15.34,16.57,16.29,22.28
		c0.01,0.06,0.02,0.12,0.03,0.19c0.02,0.11,0.03,0.22,0.05,0.32c0.12,0.76,0.28,1.82,0.28,1.82s0.15-1.11,0.28-1.82
		c0.02-0.09,0.03-0.19,0.04-0.29c0.02-0.11,0.04-0.23,0.06-0.34c0.97-5.73,4.39-15.78,16.26-22.15c-0.18,4.47-1.13,8.28-2.5,11.51
		c1.02-0.4,2.03-0.73,3.03-1c2.69-7.36,1.71-14.14,1.71-14.14S77.38,52.85,75,69.35c-2.38-16.5-18.89-21.82-18.89-21.82
		s-0.97,6.78,1.71,14.14C58.82,61.94,59.84,62.27,60.86,62.67"/>
	<path class="st1" d="M75,2.57c-25.21,0-45.72,20.51-45.72,45.72S49.79,94.01,75,94.01s45.72-20.51,45.72-45.72S100.21,2.57,75,2.57
		z M75,92.58c-24.42,0-44.28-19.87-44.28-44.28S50.58,4.01,75,4.01s44.28,19.87,44.28,44.28S99.42,92.58,75,92.58z"/>
	<path class="st1" d="M12.05,115.84c-0.11-0.56-0.24-1.07-0.38-1.51c-0.15-0.44-0.33-0.82-0.54-1.12c-0.22-0.3-0.48-0.53-0.79-0.68
		c-0.31-0.15-0.69-0.23-1.14-0.23c-0.4,0-0.77,0.07-1.1,0.22c-0.34,0.15-0.63,0.32-0.87,0.52c-0.25,0.2-0.44,0.4-0.57,0.6
		c-0.14,0.2-0.21,0.35-0.23,0.46c-0.02,0.15-0.1,0.22-0.25,0.22c-0.25,0-0.49-0.09-0.71-0.27c-0.22-0.18-0.33-0.4-0.33-0.65
		c0-0.15,0.02-0.25,0.05-0.33c0.42-0.24,0.93-0.49,1.52-0.76c0.6-0.27,1.22-0.53,1.87-0.76c0.64-0.24,1.28-0.43,1.92-0.59
		c0.64-0.15,1.21-0.23,1.72-0.23c0.76,0,1.35,0.11,1.76,0.33c0.41,0.22,0.71,0.53,0.91,0.93c0.2,0.4,0.32,0.87,0.37,1.4
		c0.04,0.54,0.09,1.11,0.12,1.73c0.05,0.93,0.13,1.82,0.22,2.68c0.09,0.86,0.23,1.62,0.41,2.29c0.18,0.66,0.41,1.2,0.69,1.61
		c0.28,0.41,0.63,0.61,1.05,0.61c0.2,0,0.42-0.04,0.65-0.11c0.24-0.07,0.46-0.16,0.68-0.26c0.22-0.1,0.41-0.2,0.59-0.3
		c0.17-0.1,0.29-0.17,0.34-0.2c0.16,0,0.26,0.08,0.3,0.25c0,0.09-0.02,0.17-0.05,0.25c-0.04,0.04-0.17,0.13-0.41,0.27
		c-0.24,0.15-0.53,0.32-0.87,0.52c-0.35,0.2-0.73,0.41-1.14,0.64c-0.42,0.23-0.83,0.44-1.24,0.64c-0.41,0.2-0.79,0.36-1.13,0.49
		c-0.35,0.13-0.62,0.19-0.82,0.19c-0.24,0-0.44-0.1-0.61-0.29c-0.17-0.19-0.32-0.44-0.45-0.76c-0.13-0.32-0.24-0.68-0.33-1.1
		c-0.09-0.42-0.17-0.85-0.25-1.31c-0.33,0.27-0.74,0.59-1.25,0.97c-0.51,0.37-1.06,0.72-1.66,1.05c-0.6,0.33-1.21,0.6-1.84,0.83
		c-0.63,0.23-1.23,0.34-1.81,0.34c-0.49,0-0.92-0.08-1.28-0.23C4.8,124,4.5,123.8,4.25,123.54c-0.25-0.25-0.43-0.55-0.54-0.88
		c-0.12-0.34-0.18-0.68-0.18-1.05c0-0.58,0.18-1.06,0.53-1.43c0.35-0.37,0.9-0.76,1.65-1.16c0.34-0.18,0.83-0.42,1.44-0.72
		c0.62-0.3,1.25-0.6,1.89-0.91c0.64-0.31,1.24-0.6,1.8-0.88C11.39,116.22,11.8,116,12.05,115.84 M12.84,120.06
		c-0.05-0.31-0.11-0.64-0.16-1.01c-0.05-0.36-0.11-0.71-0.16-1.03c-0.05-0.33-0.1-0.61-0.15-0.84c-0.05-0.24-0.08-0.39-0.1-0.46
		c-0.29,0.11-0.62,0.24-0.98,0.38c-0.36,0.15-0.73,0.3-1.09,0.48c-0.36,0.17-0.71,0.34-1.03,0.52c-0.33,0.17-0.6,0.33-0.82,0.48
		c-0.42,0.27-0.73,0.54-0.95,0.82c-0.22,0.27-0.33,0.6-0.33,0.98c0,0.53,0.15,0.99,0.46,1.39c0.31,0.4,0.79,0.6,1.44,0.6
		c0.34,0,0.7-0.06,1.08-0.19c0.37-0.13,0.72-0.27,1.03-0.44c0.32-0.16,0.59-0.33,0.83-0.49c0.24-0.16,0.4-0.29,0.49-0.38
		c0.14-0.14,0.26-0.27,0.34-0.37C12.83,120.38,12.86,120.24,12.84,120.06"/>
	<path class="st1" d="M23.13,119.57c0,0.38,0.01,0.75,0.03,1.1c0.02,0.35,0.08,0.66,0.19,0.91c0.11,0.25,0.27,0.46,0.49,0.61
		c0.22,0.15,0.53,0.23,0.93,0.23c0.2,0,0.43-0.02,0.68-0.07c0.25-0.04,0.49-0.1,0.72-0.18c0.23-0.07,0.43-0.14,0.6-0.22
		c0.17-0.07,0.28-0.13,0.31-0.16c0.05-0.05,0.09-0.05,0.11,0c0.02,0.05,0.02,0.12,0.01,0.2c-0.01,0.08-0.03,0.16-0.07,0.25
		c-0.04,0.08-0.08,0.14-0.14,0.18c-0.18,0.09-0.5,0.25-0.95,0.49c-0.45,0.24-0.99,0.48-1.61,0.74c-0.58,0.25-1.15,0.47-1.7,0.64
		c-0.55,0.17-1.01,0.26-1.37,0.26c-0.42,0-0.74-0.13-0.98-0.38c-0.24-0.25-0.35-0.57-0.35-0.95c0-0.13,0-0.24,0.01-0.33
		c0.01-0.09,0.02-0.21,0.04-0.35c0.02-0.18,0.05-0.51,0.1-0.99c0.05-0.48,0.09-1.02,0.14-1.62c0.04-0.6,0.09-1.2,0.12-1.81
		c0.04-0.61,0.05-1.13,0.05-1.57v-0.95c0-0.47-0.03-0.89-0.08-1.25c-0.05-0.36-0.15-0.64-0.27-0.84c-0.09-0.13-0.2-0.23-0.34-0.31
		c-0.14-0.08-0.3-0.12-0.5-0.12c-0.11,0-0.22,0.02-0.33,0.07c-0.11,0.05-0.19,0.07-0.25,0.07c-0.04,0-0.1-0.05-0.18-0.16
		c-0.08-0.11-0.08-0.19,0.01-0.25c0.13-0.09,0.39-0.24,0.79-0.44c0.4-0.2,0.83-0.42,1.31-0.65c0.51-0.25,1-0.48,1.47-0.67
		c0.47-0.19,0.81-0.29,1.01-0.29c0.2,0,0.34,0.06,0.41,0.18c0.07,0.12,0.11,0.25,0.11,0.39v0.11c0,0.18-0.03,0.47-0.08,0.87
		c-0.05,0.4-0.11,0.89-0.18,1.47c-0.06,0.58-0.12,1.25-0.18,2.02c-0.05,0.76-0.08,1.59-0.08,2.48V119.57z M22.04,105.41
		c0.09,0.02,0.24,0.12,0.45,0.3c0.21,0.18,0.42,0.39,0.64,0.63c0.22,0.24,0.41,0.46,0.57,0.68c0.16,0.22,0.25,0.36,0.25,0.44
		c0,0.09-0.11,0.23-0.33,0.41c-0.22,0.18-0.47,0.37-0.75,0.56c-0.28,0.19-0.55,0.36-0.82,0.5c-0.26,0.15-0.45,0.22-0.56,0.22
		c-0.05,0-0.19-0.09-0.4-0.26c-0.21-0.17-0.42-0.37-0.64-0.59c-0.22-0.22-0.41-0.43-0.59-0.64c-0.17-0.21-0.26-0.35-0.26-0.42
		c0-0.09,0.12-0.23,0.35-0.42c0.24-0.19,0.49-0.39,0.78-0.6c0.28-0.21,0.55-0.39,0.82-0.54C21.83,105.52,21.99,105.43,22.04,105.41"
		/>
	<path class="st1" d="M26.43,123.63c-0.15,0.09-0.28,0.24-0.41,0.45c-0.13,0.21-0.21,0.37-0.25,0.48c-0.02,0.04-0.07,0.07-0.15,0.1
		c-0.08,0.03-0.14,0.04-0.18,0.04c-0.16,0-0.25-0.08-0.25-0.25c0-0.05,0.07-0.2,0.22-0.44c0.11-0.18,0.28-0.47,0.52-0.86
		c0.24-0.39,0.48-0.79,0.72-1.2c0.25-0.41,0.47-0.78,0.68-1.12c0.21-0.34,0.36-0.56,0.45-0.67c0.09-0.09,0.2-0.1,0.33-0.04
		c0.13,0.06,0.16,0.14,0.11,0.23c-0.04,0.04-0.06,0.08-0.08,0.14c-0.02,0.05-0.03,0.15-0.03,0.27c0,0.16,0.14,0.37,0.42,0.61
		c0.28,0.25,0.64,0.48,1.08,0.71c0.44,0.23,0.92,0.42,1.44,0.59c0.53,0.16,1.04,0.25,1.55,0.25c0.6,0,1.08-0.17,1.43-0.52
		c0.35-0.34,0.53-0.8,0.53-1.36c0-0.64-0.2-1.11-0.6-1.42c-0.4-0.31-0.89-0.54-1.48-0.71c-0.59-0.16-1.23-0.29-1.93-0.39
		c-0.7-0.1-1.34-0.25-1.93-0.45c-0.59-0.2-1.08-0.49-1.48-0.87c-0.4-0.38-0.6-0.93-0.6-1.66c0-0.56,0.19-1.13,0.59-1.72
		c0.39-0.58,0.91-1.1,1.55-1.55c0.64-0.45,1.38-0.83,2.22-1.12c0.83-0.29,1.71-0.44,2.61-0.44c0.27,0,0.59,0.03,0.95,0.08
		c0.36,0.05,0.72,0.12,1.08,0.2c0.35,0.08,0.68,0.16,0.98,0.25c0.3,0.08,0.52,0.15,0.67,0.2c0.04,0,0.03,0.07-0.03,0.22
		c-0.05,0.16-0.19,0.41-0.41,0.75c-0.22,0.34-0.46,0.67-0.72,0.99c-0.26,0.33-0.51,0.62-0.74,0.87c-0.23,0.25-0.39,0.38-0.48,0.38
		h-0.16c-0.09,0-0.15-0.02-0.19-0.05c0.02-0.09,0.03-0.21,0.03-0.35c0-0.64-0.29-1.13-0.86-1.5c-0.57-0.36-1.4-0.54-2.49-0.54
		c-0.53,0-0.96,0.15-1.29,0.46c-0.34,0.31-0.5,0.68-0.5,1.12c0,0.71,0.2,1.23,0.6,1.58c0.4,0.34,0.9,0.6,1.5,0.78
		c0.6,0.17,1.24,0.3,1.93,0.39c0.69,0.09,1.33,0.23,1.93,0.42c0.6,0.19,1.1,0.48,1.5,0.86c0.4,0.38,0.6,0.95,0.6,1.72
		c0,0.35-0.07,0.68-0.22,1.01c-0.15,0.33-0.34,0.64-0.57,0.93c-0.24,0.29-0.5,0.56-0.79,0.8c-0.29,0.25-0.58,0.46-0.87,0.64
		c-0.27,0.18-0.58,0.37-0.93,0.56c-0.34,0.19-0.72,0.37-1.12,0.53c-0.4,0.16-0.81,0.3-1.23,0.39c-0.42,0.1-0.83,0.15-1.25,0.15
		c-0.2,0-0.52-0.04-0.95-0.12c-0.44-0.08-0.88-0.18-1.32-0.29c-0.44-0.11-0.84-0.21-1.18-0.31
		C26.63,123.73,26.45,123.66,26.43,123.63"/>
	<path class="st1" d="M39.12,123.63c-0.15,0.09-0.28,0.24-0.41,0.45c-0.13,0.21-0.21,0.37-0.25,0.48c-0.02,0.04-0.07,0.07-0.15,0.1
		c-0.08,0.03-0.14,0.04-0.18,0.04c-0.16,0-0.25-0.08-0.25-0.25c0-0.05,0.07-0.2,0.22-0.44c0.11-0.18,0.28-0.47,0.52-0.86
		c0.24-0.39,0.48-0.79,0.72-1.2c0.24-0.41,0.47-0.78,0.68-1.12c0.21-0.34,0.36-0.56,0.45-0.67c0.09-0.09,0.2-0.1,0.33-0.04
		c0.13,0.06,0.16,0.14,0.11,0.23c-0.04,0.04-0.06,0.08-0.08,0.14c-0.02,0.05-0.03,0.15-0.03,0.27c0,0.16,0.14,0.37,0.42,0.61
		c0.28,0.25,0.64,0.48,1.08,0.71c0.44,0.23,0.92,0.42,1.44,0.59c0.53,0.16,1.04,0.25,1.55,0.25c0.6,0,1.08-0.17,1.43-0.52
		c0.35-0.34,0.53-0.8,0.53-1.36c0-0.64-0.2-1.11-0.6-1.42c-0.4-0.31-0.89-0.54-1.48-0.71c-0.59-0.16-1.23-0.29-1.93-0.39
		c-0.7-0.1-1.34-0.25-1.93-0.45c-0.59-0.2-1.08-0.49-1.48-0.87c-0.4-0.38-0.6-0.93-0.6-1.66c0-0.56,0.19-1.13,0.59-1.72
		c0.39-0.58,0.91-1.1,1.55-1.55c0.64-0.45,1.38-0.83,2.22-1.12c0.83-0.29,1.71-0.44,2.61-0.44c0.27,0,0.59,0.03,0.95,0.08
		c0.36,0.05,0.72,0.12,1.08,0.2c0.35,0.08,0.68,0.16,0.98,0.25c0.3,0.08,0.52,0.15,0.67,0.2c0.04,0,0.03,0.07-0.03,0.22
		c-0.05,0.16-0.19,0.41-0.41,0.75c-0.22,0.34-0.46,0.67-0.72,0.99c-0.26,0.33-0.51,0.62-0.74,0.87c-0.23,0.25-0.39,0.38-0.48,0.38
		h-0.16c-0.09,0-0.15-0.02-0.19-0.05c0.02-0.09,0.03-0.21,0.03-0.35c0-0.64-0.29-1.13-0.86-1.5c-0.57-0.36-1.4-0.54-2.49-0.54
		c-0.53,0-0.96,0.15-1.29,0.46c-0.34,0.31-0.5,0.68-0.5,1.12c0,0.71,0.2,1.23,0.6,1.58c0.4,0.34,0.9,0.6,1.5,0.78
		c0.6,0.17,1.24,0.3,1.93,0.39c0.69,0.09,1.33,0.23,1.93,0.42c0.6,0.19,1.1,0.48,1.5,0.86c0.4,0.38,0.6,0.95,0.6,1.72
		c0,0.35-0.07,0.68-0.22,1.01c-0.15,0.33-0.34,0.64-0.57,0.93c-0.24,0.29-0.5,0.56-0.79,0.8c-0.29,0.25-0.58,0.46-0.87,0.64
		c-0.27,0.18-0.58,0.37-0.93,0.56c-0.35,0.19-0.72,0.37-1.12,0.53c-0.4,0.16-0.81,0.3-1.23,0.39c-0.42,0.1-0.84,0.15-1.25,0.15
		c-0.2,0-0.52-0.04-0.95-0.12c-0.44-0.08-0.88-0.18-1.32-0.29c-0.44-0.11-0.84-0.21-1.18-0.31
		C39.31,123.73,39.13,123.66,39.12,123.63"/>
	<path class="st1" d="M55.7,113.71c0.36-0.33,0.77-0.67,1.22-1.02c0.45-0.35,0.93-0.68,1.43-0.98c0.5-0.3,1.02-0.54,1.57-0.74
		c0.54-0.19,1.1-0.29,1.66-0.29c0.65,0,1.27,0.1,1.84,0.31c0.57,0.21,1.08,0.51,1.51,0.91c0.44,0.4,0.78,0.88,1.03,1.43
		c0.25,0.55,0.38,1.18,0.38,1.87c0,1.4-0.24,2.68-0.72,3.85c-0.48,1.17-1.04,2.2-1.69,3.08c-0.64,0.88-1.28,1.61-1.92,2.19
		c-0.64,0.58-1.11,0.96-1.42,1.14c-0.09,0.05-0.18,0.04-0.27-0.05c-0.09-0.09-0.09-0.19,0-0.3c0.15-0.11,0.37-0.38,0.67-0.8
		c0.3-0.43,0.6-0.97,0.91-1.62c0.31-0.65,0.58-1.4,0.82-2.23c0.24-0.83,0.35-1.73,0.35-2.7c0-0.8-0.1-1.51-0.29-2.12
		c-0.19-0.62-0.45-1.13-0.78-1.55c-0.33-0.42-0.7-0.74-1.13-0.95c-0.43-0.22-0.88-0.33-1.37-0.33c-0.33,0-0.67,0.05-1.03,0.15
		c-0.36,0.1-0.7,0.24-1.01,0.42c-0.33,0.2-0.64,0.44-0.95,0.74c-0.31,0.29-0.54,0.59-0.68,0.9c-0.04,0.07-0.07,0.14-0.1,0.2
		c-0.03,0.06-0.05,0.15-0.08,0.27c-0.03,0.12-0.05,0.27-0.08,0.45c-0.03,0.18-0.05,0.43-0.07,0.74c-0.05,0.53-0.1,1.04-0.12,1.54
		c-0.03,0.5-0.04,1.09-0.04,1.78c0,0.89,0.05,1.57,0.16,2.06c0.11,0.48,0.43,0.76,0.95,0.83c0.05,0,0.12,0,0.19-0.01
		c0.07-0.01,0.15-0.02,0.25-0.04c0.07-0.02,0.16-0.04,0.27-0.08c0.05,0,0.1,0.03,0.12,0.08c0.03,0.05,0.04,0.11,0.04,0.16
		c0,0.05-0.1,0.14-0.3,0.25c-0.2,0.11-0.45,0.22-0.76,0.34c-0.31,0.12-0.65,0.24-1.02,0.35c-0.37,0.12-0.72,0.23-1.05,0.34
		c-0.34,0.09-0.64,0.17-0.88,0.25c-0.25,0.07-0.41,0.11-0.5,0.11c-0.54,0-0.82-0.21-0.82-0.63c0-0.09,0.05-0.26,0.14-0.52
		c0.09-0.25,0.16-0.64,0.22-1.17c0.07-0.76,0.15-1.6,0.22-2.52c0.07-0.92,0.13-1.84,0.18-2.76c0.05-0.93,0.08-1.83,0.11-2.72
		c0.03-0.89,0.04-1.69,0.04-2.4c0-1.31-0.02-2.41-0.07-3.32c-0.05-0.91-0.09-1.55-0.12-1.93c-0.05-0.47-0.11-0.79-0.16-0.94
		c-0.05-0.15-0.12-0.29-0.19-0.42c-0.09-0.16-0.2-0.28-0.34-0.34c-0.14-0.06-0.26-0.1-0.38-0.12c-0.12-0.02-0.22-0.02-0.3-0.01
		c-0.08,0.01-0.12,0-0.12-0.04c0-0.25,0.08-0.46,0.25-0.63c0.16-0.16,0.38-0.25,0.65-0.25c0.53,0,1.07-0.01,1.63-0.03
		c0.56-0.02,1.08-0.05,1.55-0.08c0.4-0.04,0.77-0.09,1.1-0.16c0.34-0.07,0.56-0.13,0.67-0.16c0.14-0.02,0.22,0,0.23,0.07
		c0.01,0.06,0.01,0.18,0.01,0.34c0,0.11-0.05,0.19-0.14,0.25c-0.09,0.05-0.19,0.1-0.3,0.14c-0.11,0.04-0.21,0.07-0.31,0.1
		c-0.1,0.03-0.17,0.07-0.2,0.12c-0.07,0.11-0.15,0.45-0.22,1.01c-0.07,0.56-0.14,1.28-0.2,2.14c-0.06,0.86-0.12,1.82-0.16,2.87
		c-0.05,1.05-0.08,2.11-0.1,3.19L55.7,113.71z"/>
	<path class="st1" d="M80.8,124.12c-0.13-0.27-0.3-0.69-0.53-1.27c-0.23-0.57-0.48-1.21-0.75-1.92c-0.27-0.71-0.56-1.44-0.87-2.19
		c-0.31-0.75-0.6-1.44-0.87-2.06c-0.31,0.53-0.68,1.17-1.12,1.92c-0.44,0.75-0.87,1.5-1.31,2.25c-0.44,0.74-0.83,1.44-1.2,2.08
		c-0.36,0.64-0.63,1.13-0.79,1.46c-0.05,0.07-0.17,0.12-0.34,0.14c-0.17,0.02-0.3,0.03-0.39,0.03c-0.2,0-0.34-0.11-0.41-0.33
		c-0.11-0.47-0.25-1.07-0.42-1.8c-0.17-0.73-0.37-1.5-0.6-2.33c-0.23-0.83-0.47-1.66-0.74-2.49c-0.26-0.83-0.53-1.59-0.8-2.26
		c-0.27-0.67-0.55-1.22-0.83-1.63c-0.28-0.42-0.55-0.63-0.8-0.63c-0.09,0-0.18,0-0.26-0.01c-0.08-0.01-0.17-0.01-0.26-0.01
		c-0.16,0-0.27,0.01-0.33,0.03c-0.07,0-0.11-0.06-0.11-0.19c0-0.04,0.03-0.1,0.08-0.19c0.11-0.07,0.35-0.21,0.74-0.42
		c0.38-0.21,0.78-0.43,1.21-0.65c0.43-0.23,0.83-0.43,1.2-0.61c0.37-0.18,0.61-0.27,0.72-0.27c0.31,0,0.61,0.33,0.91,0.98
		c0.3,0.65,0.59,1.47,0.89,2.45c0.29,0.98,0.58,2.04,0.87,3.19c0.29,1.14,0.58,2.21,0.87,3.19c0.16-0.24,0.35-0.53,0.56-0.88
		c0.21-0.35,0.43-0.75,0.65-1.18c0.23-0.44,0.46-0.9,0.71-1.39c0.25-0.49,0.49-0.98,0.72-1.47c-0.07-0.18-0.16-0.39-0.26-0.64
		c-0.1-0.25-0.2-0.49-0.31-0.75c-0.11-0.25-0.22-0.5-0.34-0.75c-0.12-0.25-0.23-0.45-0.34-0.61c-0.11-0.16-0.24-0.26-0.38-0.29
		c-0.15-0.03-0.22-0.09-0.22-0.18c0-0.04,0.02-0.07,0.05-0.11c0.51-0.29,1.07-0.59,1.67-0.88c0.61-0.3,1.21-0.49,1.81-0.59
		c0.16,0.04,0.28,0.11,0.35,0.23c0.07,0.12,0.13,0.25,0.16,0.39c0.07,0.22,0.19,0.55,0.34,0.99c0.15,0.44,0.33,0.96,0.52,1.54
		c0.19,0.58,0.4,1.2,0.63,1.87c0.23,0.66,0.45,1.32,0.67,1.96c0.22,0.64,0.43,1.25,0.64,1.82c0.21,0.57,0.4,1.05,0.59,1.43
		c0.25-0.53,0.54-1.14,0.86-1.85c0.32-0.71,0.62-1.43,0.9-2.16c0.28-0.73,0.52-1.44,0.71-2.12c0.19-0.68,0.29-1.24,0.29-1.67
		c0-0.91-0.41-1.36-1.23-1.36c-0.2,0-0.39,0.02-0.59,0.07c-0.19,0.05-0.31,0.07-0.37,0.07c-0.05,0-0.1-0.03-0.15-0.1
		c-0.05-0.06-0.07-0.14-0.07-0.23c0-0.07,0.13-0.16,0.38-0.26c0.25-0.1,0.59-0.19,1.01-0.27c0.42-0.08,0.88-0.15,1.39-0.22
		c0.51-0.06,1.03-0.1,1.55-0.1c0.4,0,0.73,0.05,0.99,0.16c0.26,0.11,0.43,0.27,0.5,0.49c-0.15,0.54-0.39,1.18-0.73,1.91
		c-0.35,0.73-0.74,1.49-1.18,2.29c-0.44,0.8-0.92,1.62-1.43,2.46c-0.51,0.84-1,1.66-1.47,2.44c-0.47,0.78-0.9,1.51-1.29,2.18
		c-0.39,0.67-0.69,1.23-0.89,1.69c-0.04,0.04-0.15,0.05-0.34,0.05h-0.42c-0.15,0-0.23-0.03-0.25-0.1
		C80.94,124.36,80.89,124.26,80.8,124.12"/>
	<path class="st1" d="M96.84,115.84c-0.11-0.56-0.24-1.07-0.38-1.51c-0.15-0.44-0.33-0.82-0.54-1.12c-0.22-0.3-0.48-0.53-0.79-0.68
		c-0.31-0.15-0.69-0.23-1.14-0.23c-0.4,0-0.77,0.07-1.1,0.22c-0.34,0.15-0.63,0.32-0.87,0.52c-0.25,0.2-0.44,0.4-0.57,0.6
		c-0.14,0.2-0.21,0.35-0.23,0.46c-0.02,0.15-0.1,0.22-0.25,0.22c-0.25,0-0.49-0.09-0.71-0.27c-0.22-0.18-0.33-0.4-0.33-0.65
		c0-0.15,0.02-0.25,0.05-0.33c0.42-0.24,0.93-0.49,1.52-0.76c0.6-0.27,1.22-0.53,1.87-0.76c0.64-0.24,1.28-0.43,1.92-0.59
		c0.64-0.15,1.21-0.23,1.72-0.23c0.76,0,1.35,0.11,1.76,0.33c0.41,0.22,0.71,0.53,0.91,0.93c0.2,0.4,0.32,0.87,0.37,1.4
		c0.04,0.54,0.09,1.11,0.12,1.73c0.05,0.93,0.13,1.82,0.22,2.68c0.09,0.86,0.23,1.62,0.41,2.29c0.18,0.66,0.41,1.2,0.69,1.61
		c0.28,0.41,0.63,0.61,1.05,0.61c0.2,0,0.42-0.04,0.65-0.11c0.24-0.07,0.46-0.16,0.68-0.26c0.22-0.1,0.41-0.2,0.59-0.3
		c0.17-0.1,0.29-0.17,0.34-0.2c0.16,0,0.26,0.08,0.3,0.25c0,0.09-0.02,0.17-0.05,0.25c-0.04,0.04-0.17,0.13-0.41,0.27
		c-0.24,0.15-0.53,0.32-0.87,0.52c-0.35,0.2-0.73,0.41-1.14,0.64c-0.42,0.23-0.83,0.44-1.24,0.64c-0.41,0.2-0.79,0.36-1.13,0.49
		c-0.35,0.13-0.62,0.19-0.82,0.19c-0.24,0-0.44-0.1-0.61-0.29c-0.17-0.19-0.32-0.44-0.45-0.76c-0.13-0.32-0.24-0.68-0.33-1.1
		c-0.09-0.42-0.17-0.85-0.25-1.31c-0.33,0.27-0.74,0.59-1.25,0.97c-0.51,0.37-1.06,0.72-1.66,1.05c-0.6,0.33-1.21,0.6-1.84,0.83
		c-0.63,0.23-1.23,0.34-1.81,0.34c-0.49,0-0.92-0.08-1.28-0.23c-0.36-0.15-0.67-0.36-0.91-0.61c-0.25-0.25-0.43-0.55-0.54-0.88
		c-0.12-0.34-0.18-0.68-0.18-1.05c0-0.58,0.18-1.06,0.53-1.43c0.35-0.37,0.9-0.76,1.65-1.16c0.34-0.18,0.83-0.42,1.44-0.72
		c0.62-0.3,1.25-0.6,1.89-0.91c0.64-0.31,1.24-0.6,1.8-0.88C96.18,116.22,96.58,116,96.84,115.84 M97.63,120.06
		c-0.05-0.31-0.11-0.64-0.16-1.01c-0.05-0.36-0.11-0.71-0.16-1.03c-0.05-0.33-0.1-0.61-0.15-0.84c-0.05-0.24-0.08-0.39-0.1-0.46
		c-0.29,0.11-0.62,0.24-0.98,0.38c-0.36,0.15-0.73,0.3-1.09,0.48c-0.36,0.17-0.71,0.34-1.03,0.52c-0.33,0.17-0.6,0.33-0.82,0.48
		c-0.42,0.27-0.74,0.54-0.95,0.82c-0.22,0.27-0.33,0.6-0.33,0.98c0,0.53,0.15,0.99,0.46,1.39c0.31,0.4,0.79,0.6,1.44,0.6
		c0.34,0,0.7-0.06,1.08-0.19c0.37-0.13,0.72-0.27,1.03-0.44c0.32-0.16,0.59-0.33,0.83-0.49c0.24-0.16,0.4-0.29,0.49-0.38
		c0.15-0.14,0.26-0.27,0.34-0.37C97.61,120.38,97.64,120.24,97.63,120.06"/>
	<path class="st1" d="M116.28,112.73c-0.2,0.16-0.44,0.37-0.71,0.61c-0.27,0.25-0.56,0.48-0.86,0.71c-0.3,0.23-0.6,0.42-0.91,0.59
		c-0.31,0.16-0.61,0.25-0.9,0.25c-0.25,0-0.48-0.06-0.68-0.18c-0.2-0.12-0.39-0.25-0.56-0.38c-0.17-0.14-0.34-0.26-0.5-0.38
		c-0.16-0.12-0.34-0.18-0.52-0.18c-0.49,0-0.9,0.2-1.24,0.6c-0.34,0.4-0.61,0.91-0.82,1.52c-0.21,0.62-0.36,1.29-0.46,2.01
		c-0.1,0.73-0.15,1.43-0.15,2.1c0,0.56,0.02,1.02,0.07,1.37c0.04,0.35,0.11,0.64,0.2,0.84c0.09,0.21,0.21,0.35,0.37,0.42
		c0.15,0.07,0.34,0.11,0.56,0.11c0.24,0,0.49-0.04,0.76-0.11c0.05-0.02,0.1,0.02,0.12,0.11c0.03,0.09,0.04,0.16,0.04,0.22
		c0,0.04-0.03,0.08-0.08,0.12c-0.05,0.05-0.09,0.07-0.11,0.07c-0.4,0.16-0.81,0.34-1.23,0.53c-0.42,0.19-0.76,0.35-1.03,0.48
		c-0.25,0.11-0.56,0.23-0.91,0.35c-0.35,0.13-0.66,0.19-0.91,0.19c-0.29,0-0.53-0.05-0.72-0.14c-0.19-0.09-0.29-0.18-0.29-0.27
		s0.02-0.17,0.07-0.25c0.05-0.07,0.09-0.21,0.12-0.41c0.04-0.27,0.08-0.59,0.12-0.97c0.05-0.37,0.09-0.78,0.14-1.21
		c0.04-0.44,0.08-0.88,0.11-1.35c0.03-0.46,0.04-0.92,0.04-1.37c0-1.02-0.03-1.88-0.1-2.59c-0.06-0.71-0.18-1.28-0.34-1.72
		c-0.16-0.44-0.39-0.75-0.67-0.94c-0.28-0.19-0.64-0.29-1.08-0.29h-0.25c-0.07,0-0.15,0.01-0.22,0.03c-0.11,0-0.16-0.05-0.16-0.16
		c0-0.11,0.05-0.19,0.16-0.25c0.2-0.13,0.51-0.31,0.93-0.56c0.42-0.25,0.85-0.48,1.29-0.71c0.44-0.23,0.88-0.43,1.29-0.61
		c0.42-0.18,0.73-0.27,0.93-0.27c0.24,0,0.44,0.08,0.6,0.23c0.16,0.15,0.29,0.35,0.37,0.59c0.08,0.24,0.14,0.5,0.18,0.8
		c0.04,0.3,0.05,0.59,0.05,0.88c0,0.22,0,0.44-0.01,0.68c-0.01,0.24-0.01,0.49-0.01,0.76c0.82-1.2,1.55-2.13,2.21-2.79
		c0.65-0.66,1.27-0.99,1.85-0.99c0.22,0,0.43,0.09,0.64,0.27c0.21,0.18,0.43,0.39,0.67,0.61c0.24,0.23,0.48,0.43,0.74,0.61
		c0.25,0.18,0.52,0.27,0.79,0.27c0.24,0,0.41-0.03,0.52-0.08c0.11-0.05,0.2-0.1,0.27-0.14c0.14,0,0.22,0.1,0.22,0.3V112.73z"/>
	<path class="st1" d="M115.7,132.39c0.16-0.18,0.41-0.48,0.73-0.9c0.33-0.42,0.69-0.89,1.08-1.42c0.39-0.53,0.79-1.09,1.2-1.69
		c0.41-0.6,0.79-1.17,1.16-1.7c0.36-0.54,0.68-1.03,0.94-1.47c0.26-0.44,0.43-0.78,0.5-0.99c-0.29-0.76-0.6-1.57-0.93-2.42
		c-0.33-0.85-0.67-1.7-1.02-2.53c-0.35-0.83-0.71-1.63-1.06-2.4c-0.35-0.76-0.7-1.43-1.05-2c-0.35-0.57-0.68-1.03-0.99-1.37
		c-0.32-0.34-0.6-0.52-0.86-0.52c-0.07,0-0.15,0.02-0.25,0.07c-0.09,0.05-0.17,0.09-0.25,0.12c-0.05,0.04-0.12-0.01-0.19-0.14
		c-0.07-0.13-0.07-0.21,0-0.25c0.07-0.05,0.29-0.19,0.64-0.41c0.35-0.22,0.75-0.45,1.18-0.69c0.44-0.25,0.86-0.47,1.27-0.67
		c0.41-0.2,0.7-0.3,0.88-0.3c0.18,0,0.39,0.16,0.64,0.49c0.25,0.33,0.5,0.77,0.76,1.32c0.26,0.55,0.54,1.18,0.83,1.89
		c0.29,0.71,0.58,1.45,0.87,2.22c0.29,0.77,0.58,1.55,0.86,2.33c0.28,0.78,0.55,1.51,0.8,2.18c0.24-0.36,0.54-0.88,0.91-1.55
		c0.37-0.67,0.73-1.39,1.08-2.15c0.34-0.76,0.64-1.52,0.88-2.26c0.25-0.74,0.37-1.37,0.37-1.88c0-0.53-0.13-0.9-0.38-1.13
		c-0.25-0.23-0.54-0.34-0.84-0.34c-0.24,0-0.42,0-0.56,0.01c-0.14,0.01-0.29,0.03-0.45,0.07c-0.04,0-0.09-0.02-0.16-0.07
		c-0.07-0.04-0.11-0.11-0.11-0.2c0-0.09,0.2-0.19,0.6-0.3c0.4-0.11,0.86-0.21,1.39-0.3c0.53-0.09,1.04-0.17,1.55-0.23
		c0.51-0.06,0.86-0.1,1.06-0.1c0.42,0,0.73,0.08,0.93,0.25c0.2,0.16,0.3,0.35,0.3,0.57c-0.11,0.44-0.34,1-0.69,1.7
		c-0.35,0.7-0.78,1.46-1.27,2.29c-0.49,0.83-1.01,1.68-1.57,2.56c-0.55,0.88-1.08,1.71-1.59,2.49c-0.51,0.78-0.97,1.48-1.37,2.1
		c-0.41,0.62-0.7,1.07-0.88,1.36c-0.36,0.56-0.71,1.15-1.03,1.76c-0.33,0.61-0.63,1.22-0.9,1.82c-0.27,0.61-0.51,1.19-0.72,1.74
		c-0.21,0.55-0.36,1.06-0.45,1.51c-0.05,0.27,0,0.45,0.15,0.53c0.15,0.08,0.35,0.1,0.6,0.05c0.25-0.05,0.51-0.13,0.8-0.26
		c0.29-0.13,0.54-0.27,0.74-0.44c0.09-0.07,0.15-0.09,0.18-0.04c0.03,0.05,0.04,0.11,0.04,0.2c0,0.09-0.02,0.19-0.05,0.29
		c-0.04,0.1-0.08,0.17-0.14,0.2c-0.02,0-0.23,0.08-0.63,0.25c-0.4,0.16-0.88,0.34-1.44,0.53c-0.56,0.19-1.16,0.37-1.78,0.53
		c-0.63,0.16-1.18,0.25-1.65,0.25c-0.45,0-0.68-0.15-0.68-0.44c0-0.04,0-0.06,0.01-0.08C115.7,132.43,115.7,132.41,115.7,132.39"/>
	<path class="st1" d="M138.22,115.84c-0.11-0.56-0.24-1.07-0.38-1.51c-0.15-0.44-0.33-0.82-0.54-1.12c-0.22-0.3-0.48-0.53-0.79-0.68
		c-0.31-0.15-0.69-0.23-1.14-0.23c-0.4,0-0.77,0.07-1.1,0.22c-0.34,0.15-0.63,0.32-0.87,0.52c-0.25,0.2-0.44,0.4-0.57,0.6
		c-0.14,0.2-0.21,0.35-0.23,0.46c-0.02,0.15-0.1,0.22-0.25,0.22c-0.25,0-0.49-0.09-0.71-0.27c-0.22-0.18-0.33-0.4-0.33-0.65
		c0-0.15,0.02-0.25,0.05-0.33c0.42-0.24,0.93-0.49,1.52-0.76c0.6-0.27,1.22-0.53,1.87-0.76c0.64-0.24,1.28-0.43,1.92-0.59
		c0.64-0.15,1.21-0.23,1.72-0.23c0.76,0,1.35,0.11,1.76,0.33c0.41,0.22,0.71,0.53,0.91,0.93c0.2,0.4,0.32,0.87,0.37,1.4
		c0.04,0.54,0.09,1.11,0.12,1.73c0.05,0.93,0.13,1.82,0.22,2.68c0.09,0.86,0.23,1.62,0.41,2.29c0.18,0.66,0.41,1.2,0.69,1.61
		c0.28,0.41,0.63,0.61,1.05,0.61c0.2,0,0.42-0.04,0.65-0.11c0.24-0.07,0.46-0.16,0.68-0.26c0.22-0.1,0.41-0.2,0.59-0.3
		c0.17-0.1,0.29-0.17,0.34-0.2c0.16,0,0.26,0.08,0.3,0.25c0,0.09-0.02,0.17-0.05,0.25c-0.04,0.04-0.17,0.13-0.41,0.27
		c-0.24,0.15-0.53,0.32-0.87,0.52c-0.35,0.2-0.73,0.41-1.14,0.64c-0.42,0.23-0.83,0.44-1.24,0.64c-0.41,0.2-0.79,0.36-1.13,0.49
		c-0.35,0.13-0.62,0.19-0.82,0.19c-0.24,0-0.44-0.1-0.61-0.29c-0.17-0.19-0.32-0.44-0.45-0.76c-0.13-0.32-0.24-0.68-0.33-1.1
		c-0.09-0.42-0.17-0.85-0.25-1.31c-0.33,0.27-0.74,0.59-1.25,0.97c-0.51,0.37-1.06,0.72-1.66,1.05c-0.6,0.33-1.21,0.6-1.84,0.83
		c-0.63,0.23-1.23,0.34-1.81,0.34c-0.49,0-0.92-0.08-1.28-0.23c-0.36-0.15-0.67-0.36-0.91-0.61c-0.25-0.25-0.43-0.55-0.54-0.88
		c-0.12-0.34-0.18-0.68-0.18-1.05c0-0.58,0.18-1.06,0.53-1.43c0.35-0.37,0.9-0.76,1.65-1.16c0.34-0.18,0.83-0.42,1.44-0.72
		c0.62-0.3,1.25-0.6,1.89-0.91c0.64-0.31,1.24-0.6,1.8-0.88C137.56,116.22,137.97,116,138.22,115.84 M139.01,120.06
		c-0.05-0.31-0.11-0.64-0.16-1.01c-0.05-0.36-0.11-0.71-0.16-1.03c-0.05-0.33-0.1-0.61-0.15-0.84c-0.05-0.24-0.08-0.39-0.1-0.46
		c-0.29,0.11-0.62,0.24-0.98,0.38c-0.36,0.15-0.73,0.3-1.09,0.48c-0.36,0.17-0.71,0.34-1.03,0.52c-0.33,0.17-0.6,0.33-0.82,0.48
		c-0.42,0.27-0.74,0.54-0.95,0.82c-0.22,0.27-0.33,0.6-0.33,0.98c0,0.53,0.15,0.99,0.46,1.39c0.31,0.4,0.79,0.6,1.44,0.6
		c0.34,0,0.7-0.06,1.08-0.19c0.37-0.13,0.72-0.27,1.03-0.44c0.32-0.16,0.59-0.33,0.83-0.49c0.24-0.16,0.4-0.29,0.49-0.38
		c0.15-0.14,0.26-0.27,0.34-0.37C139,120.38,139.03,120.24,139.01,120.06"/>
	<path class="st1" d="M25.17,143.13H3.77c-0.02,0-0.04-0.03-0.04-0.08s0.02-0.08,0.04-0.08h21.39c0.02,0,0.04,0.03,0.04,0.08
		S25.19,143.13,25.17,143.13"/>
	<path class="st1" d="M32.53,143.34c0.01,0,0.02,0,0.03,0c0.01,1.03-0.4,2.03-1.13,2.76c-0.73,0.73-1.7,1.13-2.74,1.13
		c-0.01,0-0.02,0-0.03,0c-0.01-1.03,0.4-2.03,1.13-2.76C30.53,143.74,31.5,143.34,32.53,143.34 M32.53,143.05
		c-1.07,0-2.13,0.41-2.95,1.22c-0.89,0.89-1.29,2.09-1.21,3.26c0.1,0.01,0.21,0.01,0.31,0.01c1.07,0,2.13-0.41,2.95-1.22
		c0.89-0.89,1.29-2.09,1.21-3.26C32.74,143.05,32.64,143.05,32.53,143.05"/>
	<path class="st1" d="M29.69,141.91c1.04,0,2.03,0.42,2.76,1.15c-0.73,0.74-1.72,1.15-2.76,1.15c-1.04,0-2.03-0.42-2.76-1.15
		C27.66,142.32,28.65,141.91,29.69,141.91 M29.69,141.61c-1.26,0-2.39,0.56-3.16,1.45c0.76,0.89,1.89,1.45,3.16,1.45
		c1.26,0,2.39-0.56,3.16-1.45C32.08,142.17,30.95,141.61,29.69,141.61"/>
	<path class="st1" d="M28.69,138.88c1.03,0,2.01,0.4,2.74,1.13c0.73,0.73,1.14,1.73,1.13,2.76c-0.01,0-0.02,0-0.03,0
		c-1.03,0-2.01-0.4-2.74-1.13c-0.73-0.73-1.14-1.73-1.13-2.76C28.67,138.88,28.68,138.88,28.69,138.88 M28.69,138.58
		c-0.1,0-0.21,0-0.31,0.01c-0.09,1.17,0.32,2.36,1.21,3.26c0.81,0.81,1.88,1.22,2.95,1.22c0.1,0,0.21,0,0.31-0.01
		c0.09-1.17-0.32-2.36-1.21-3.26C30.82,138.99,29.76,138.58,28.69,138.58"/>
	<path class="st1" d="M117.47,143.34c1.03,0,2.01,0.4,2.74,1.13c0.73,0.73,1.14,1.73,1.13,2.76c-0.01,0-0.02,0-0.03,0
		c-1.03,0-2.01-0.4-2.74-1.13c-0.73-0.73-1.14-1.73-1.13-2.76C117.45,143.34,117.46,143.34,117.47,143.34 M117.47,143.05
		c-0.1,0-0.21,0-0.31,0.01c-0.09,1.17,0.32,2.36,1.21,3.26c0.81,0.81,1.88,1.22,2.95,1.22c0.1,0,0.21,0,0.31-0.01
		c0.09-1.17-0.32-2.36-1.21-3.26C119.6,143.45,118.53,143.05,117.47,143.05"/>
	<path class="st1" d="M120.31,141.91c1.04,0,2.03,0.42,2.76,1.15c-0.73,0.74-1.72,1.15-2.76,1.15c-1.04,0-2.03-0.42-2.76-1.15
		C118.28,142.32,119.27,141.91,120.31,141.91 M120.31,141.61c-1.26,0-2.39,0.56-3.16,1.45c0.76,0.89,1.89,1.45,3.16,1.45
		c1.26,0,2.39-0.56,3.16-1.45C122.7,142.17,121.57,141.61,120.31,141.61"/>
	<path class="st1" d="M121.31,138.88c0.01,0,0.02,0,0.03,0c0.01,1.03-0.4,2.03-1.13,2.76c-0.73,0.73-1.7,1.13-2.74,1.13
		c-0.01,0-0.02,0-0.03,0c-0.01-1.03,0.4-2.03,1.13-2.76C119.3,139.28,120.27,138.88,121.31,138.88 M121.31,138.58
		c-1.07,0-2.13,0.41-2.95,1.22c-0.89,0.89-1.29,2.09-1.21,3.26c0.1,0.01,0.21,0.01,0.31,0.01c1.07,0,2.13-0.41,2.95-1.22
		c0.89-0.89,1.29-2.09,1.21-3.26C121.52,138.59,121.41,138.58,121.31,138.58"/>
	<path class="st1" d="M124.82,142.99h21.53c0.02,0,0.04,0.03,0.04,0.08s-0.02,0.08-0.04,0.08h-21.53c-0.02,0-0.04-0.03-0.04-0.08
		S124.8,142.99,124.82,142.99"/>
	<g>
		<path class="st1" d="M38.86,145.31h-0.02v1.63h-0.94v-10.71h0.99v4.58h0.02c0.44-1.04,1.43-1.68,2.64-1.68
			c1.94,0,3.26,1.59,3.26,3.95s-1.32,3.95-3.27,3.95C40.31,147.04,39.32,146.4,38.86,145.31z M38.87,143.09
			c0,1.82,1.01,3.07,2.48,3.07c1.47,0,2.44-1.22,2.44-3.07s-0.97-3.07-2.44-3.07C39.89,140.01,38.87,141.28,38.87,143.09z"/>
		<path class="st1" d="M45.81,144.8c0-1.33,0.99-2.1,2.84-2.22l2.36-0.16v-0.66c0-1.11-0.71-1.76-1.94-1.76
			c-1.07,0-1.82,0.55-1.98,1.46h-0.94c0.08-1.37,1.3-2.33,2.94-2.33c1.77,0,2.9,0.99,2.9,2.55v5.26h-0.94v-1.47h-0.02
			c-0.42,0.94-1.46,1.58-2.64,1.58C46.85,147.06,45.81,146.13,45.81,144.8z M51.01,144.04v-0.85l-2.24,0.16
			c-1.28,0.09-1.96,0.59-1.96,1.45c0,0.82,0.72,1.41,1.79,1.41C49.96,146.21,51.01,145.26,51.01,144.04z"/>
		<path class="st1" d="M53.64,139.23h0.93v1.45h0.02c0.43-0.97,1.3-1.54,2.55-1.54c1.69,0,2.73,1.1,2.73,2.84v4.97h-0.98v-4.8
			c0-1.35-0.73-2.13-2.04-2.13c-1.36,0-2.23,0.97-2.23,2.4v4.53h-0.98V139.23z"/>
		<path class="st1" d="M67.11,140.82h0.02v-1.6h0.94v10.27h-0.99v-4.14h-0.02c-0.42,1-1.42,1.68-2.65,1.68
			c-1.94,0-3.27-1.59-3.27-3.95s1.34-3.95,3.29-3.95C65.68,139.14,66.68,139.81,67.11,140.82z M67.08,143.09
			c0-1.82-1.02-3.07-2.49-3.07c-1.46,0-2.44,1.23-2.44,3.07c0,1.85,0.98,3.07,2.44,3.07C66.06,146.16,67.08,144.91,67.08,143.09z"/>
		<path class="st1" d="M75.95,146.95h-0.93v-1.45H75c-0.42,0.96-1.34,1.54-2.56,1.54c-1.68,0-2.72-1.09-2.72-2.84v-4.97h0.99v4.8
			c0,1.37,0.73,2.13,2.02,2.13c1.34,0,2.25-0.94,2.25-2.4v-4.54h0.98V146.95z"/>
		<path class="st1" d="M83.95,144.76c-0.23,1.32-1.51,2.28-3.18,2.28c-2.15,0-3.51-1.49-3.51-3.93c0-2.4,1.37-3.97,3.45-3.97
			c2.03,0,3.34,1.47,3.34,3.77v0.42h-5.78v0.06c0,1.72,1,2.79,2.52,2.79c1.14,0,1.97-0.58,2.19-1.42H83.95z M78.27,142.54h4.77
			c-0.02-1.52-0.96-2.55-2.35-2.55C79.32,140,78.35,141.02,78.27,142.54z"/>
		<path class="st1" d="M86.76,137.3v1.93h1.52v0.82h-1.52v4.95c0,0.8,0.31,1.14,1.02,1.14c0.1,0,0.48-0.01,0.53-0.02v0.83
			c-0.1,0.03-0.52,0.04-0.73,0.04c-1.29,0-1.81-0.55-1.81-1.94v-5h-1.15v-0.82h1.15v-1.93H86.76z"/>
		<path class="st1" d="M92.75,136.24h0.99v4.44h0.02c0.42-0.97,1.31-1.54,2.55-1.54c1.69,0,2.76,1.14,2.76,2.86v4.95h-0.99v-4.78
			c0-1.34-0.75-2.15-2.06-2.15c-1.39,0-2.29,0.98-2.29,2.43v4.5h-0.99V136.24z"/>
		<path class="st1" d="M100.41,144.8c0-1.33,0.99-2.1,2.84-2.22l2.36-0.16v-0.66c0-1.11-0.71-1.76-1.94-1.76
			c-1.07,0-1.82,0.55-1.98,1.46h-0.94c0.08-1.37,1.3-2.33,2.94-2.33c1.77,0,2.9,0.99,2.9,2.55v5.26h-0.94v-1.47h-0.02
			c-0.42,0.94-1.46,1.58-2.64,1.58C101.46,147.06,100.41,146.13,100.41,144.8z M105.61,144.04v-0.85l-2.24,0.16
			c-1.28,0.09-1.96,0.59-1.96,1.45c0,0.82,0.72,1.41,1.79,1.41C104.57,146.21,105.61,145.26,105.61,144.04z"/>
		<path class="st1" d="M108.31,136.24h0.99v10.71h-0.99V136.24z"/>
		<path class="st1" d="M111.12,136.24h0.99v10.71h-0.99V136.24z"/>
	</g>
</g>
</svg>
